<svg width="65" height="34" viewBox="0 0 65 34" fill="none" xmlns="http://www.w3.org/2000/svg">
<g clip-path="url(#clip0_71_61)">
<path d="M8.46545 5.22348C8.47461 5.76254 8.38141 6.29856 8.19079 6.80288C8.01401 7.24601 7.73701 7.64213 7.38151 7.96031C7.00216 8.28746 6.5574 8.52977 6.07689 8.67134C5.48672 8.8469 4.87284 8.92963 4.25725 8.91657H3.37442V12.2911C3.37687 12.3446 3.3594 12.3969 3.32539 12.4382C3.2774 12.4895 3.21634 12.5269 3.1488 12.5462C3.04199 12.5797 2.93177 12.601 2.82019 12.6099C2.646 12.6298 2.47067 12.6379 2.29539 12.6343C2.13155 12.6366 1.96772 12.6285 1.80493 12.6099C1.69167 12.6016 1.57975 12.5802 1.47141 12.5462C1.40411 12.5295 1.34395 12.4916 1.29976 12.4382C1.2676 12.3959 1.25034 12.3443 1.2507 12.2911V2.78098C1.24292 2.67664 1.25678 2.57174 1.29138 2.473C1.32598 2.37426 1.3806 2.28384 1.4518 2.20717C1.52231 2.14221 1.60499 2.09176 1.69506 2.05893C1.78514 2.0261 1.88083 2.01147 1.97661 2.01583H4.47306C4.72319 2.01583 4.96353 2.01597 5.18424 2.04049C5.40495 2.06502 5.67469 2.10425 5.9984 2.16311C6.34023 2.2321 6.67051 2.34933 6.97933 2.51132C7.29221 2.67359 7.57306 2.89107 7.80821 3.15362C8.041 3.4187 8.21933 3.72706 8.33301 4.06102C8.44033 4.43866 8.48507 4.83138 8.46545 5.22348ZM6.21911 5.38034C6.2321 5.06297 6.16463 4.74764 6.02294 4.46336C5.91253 4.24417 5.74254 4.06054 5.53248 3.93362C5.34772 3.82232 5.14262 3.74899 4.92919 3.71784C4.7147 3.68782 4.49835 3.67291 4.28177 3.67354H3.3646V7.25886H4.34553C4.63937 7.26807 4.93229 7.22158 5.20875 7.12163C5.42637 7.03928 5.62137 6.90647 5.77771 6.73415C5.92752 6.55882 6.04089 6.3553 6.11122 6.13568C6.18638 5.89108 6.22277 5.6362 6.21911 5.38034Z" fill="white"/>
<path d="M17.6616 11.7858C17.7141 11.9461 17.7551 12.1101 17.7842 12.2763C17.7951 12.3219 17.7945 12.3696 17.7826 12.4149C17.7706 12.4603 17.7476 12.502 17.7156 12.5363C17.6232 12.6043 17.5114 12.6404 17.3968 12.6393C17.2447 12.6393 17.0338 12.6393 16.769 12.6393C16.5041 12.6393 16.2785 12.6393 16.1216 12.6393C16.0008 12.6354 15.8809 12.6189 15.7635 12.5902C15.6967 12.5752 15.6365 12.5391 15.5919 12.4872C15.5564 12.4341 15.5283 12.3763 15.5085 12.3155L14.8022 10.1918H10.8295L10.1575 12.2566C10.1406 12.3261 10.1124 12.3926 10.0741 12.453C10.0293 12.509 9.96993 12.5514 9.90247 12.5756C9.79293 12.6108 9.67904 12.6304 9.56405 12.6343C9.42182 12.6343 9.23052 12.6343 9.00001 12.6343C8.8035 12.6384 8.60696 12.6303 8.41147 12.6099C8.302 12.6094 8.19679 12.5672 8.11718 12.492C8.08879 12.4548 8.06884 12.4118 8.05868 12.3661C8.04852 12.3203 8.04839 12.2729 8.05832 12.2272C8.08583 12.0718 8.12686 11.9194 8.18094 11.7712L11.4425 2.38865C11.4671 2.30759 11.5052 2.23131 11.5553 2.16306C11.6112 2.10027 11.6847 2.0557 11.7662 2.03541C11.8943 2.00061 12.026 1.9808 12.1586 1.9765C12.3303 1.9765 12.551 1.9765 12.8305 1.9765C13.1101 1.9765 13.4093 1.9765 13.6006 1.9765C13.7494 1.98034 13.8974 2.00013 14.042 2.03541C14.1312 2.05322 14.2122 2.09973 14.2725 2.16785C14.328 2.24071 14.3681 2.32417 14.3902 2.41308L17.6616 11.7858ZM12.806 4.03152L11.3346 8.52425H14.3167L12.806 4.03152Z" fill="white"/>
<path d="M25.4061 9.40211C25.4187 9.90991 25.3129 10.4137 25.0971 10.8735C24.899 11.2827 24.6106 11.6417 24.2535 11.9232C23.8865 12.2151 23.4645 12.4303 23.0126 12.5559C22.519 12.7016 22.0068 12.7743 21.4922 12.7717C20.8647 12.7699 20.2418 12.6656 19.648 12.4627C19.4392 12.3933 19.2372 12.3046 19.0448 12.1979C18.9189 12.131 18.8019 12.0486 18.6965 11.9526C18.62 11.8663 18.5676 11.7614 18.5445 11.6485C18.5105 11.4575 18.4957 11.2635 18.5003 11.0696C18.4917 10.9292 18.4917 10.7884 18.5003 10.6479C18.5052 10.5531 18.5216 10.4593 18.5494 10.3684C18.5672 10.3096 18.6012 10.2569 18.6475 10.2164C18.6907 10.1866 18.7422 10.171 18.7946 10.1721C18.9105 10.1881 19.0203 10.2337 19.1134 10.3045C19.2869 10.4152 19.4671 10.5153 19.6529 10.6038C19.9034 10.7268 20.1643 10.8269 20.4328 10.903C20.7743 10.9984 21.1277 11.0445 21.4824 11.0402C21.7197 11.0427 21.9562 11.0098 22.1837 10.9422C22.3764 10.8908 22.5566 10.8006 22.7134 10.6774C22.8544 10.5643 22.9669 10.42 23.042 10.2556C23.1202 10.0781 23.1587 9.88539 23.1549 9.69141C23.1614 9.46913 23.0922 9.25134 22.9587 9.07354C22.8242 8.89298 22.658 8.73833 22.4682 8.61732C22.2404 8.4718 22.0009 8.34547 21.7521 8.23965L20.9281 7.86702C20.6443 7.73577 20.3691 7.58662 20.1042 7.42062C19.839 7.25711 19.598 7.05737 19.3881 6.82717C19.1792 6.58219 19.0134 6.3035 18.8976 6.00311C18.7575 5.64227 18.6908 5.25706 18.7014 4.87011C18.6917 4.40835 18.7873 3.95045 18.981 3.53115C19.1612 3.16046 19.4207 2.83409 19.7412 2.57489C20.0768 2.31506 20.46 2.12349 20.8693 2.0109C21.5609 1.81335 22.2871 1.76816 22.9979 1.87847C23.2368 1.91357 23.4729 1.96594 23.7042 2.03533C23.902 2.09346 24.0954 2.16555 24.2829 2.25111C24.403 2.30421 24.5152 2.37349 24.6164 2.45706C24.6595 2.49808 24.6974 2.54433 24.7292 2.59453C24.7506 2.64343 24.7671 2.6944 24.7783 2.7466C24.7907 2.82622 24.7989 2.90632 24.8028 2.9868C24.8028 3.07999 24.8028 3.19781 24.8028 3.34004C24.8028 3.48228 24.8028 3.62933 24.8028 3.74214C24.7957 3.83313 24.7809 3.92327 24.7587 4.0118C24.7471 4.06877 24.7199 4.12143 24.6802 4.16387C24.6409 4.19801 24.5899 4.21563 24.538 4.21296C24.4337 4.19959 24.3344 4.16087 24.2486 4.10017C24.1211 4.02169 23.9592 3.94333 23.7581 3.85014C23.5437 3.75241 23.3224 3.67045 23.096 3.60491C22.8279 3.52975 22.5504 3.49331 22.272 3.4969C22.0646 3.49367 21.8579 3.52174 21.6589 3.58024C21.4982 3.62897 21.3495 3.71096 21.2224 3.82069C21.1057 3.91812 21.0147 4.04264 20.9576 4.18351C20.9025 4.32589 20.8743 4.47727 20.8742 4.6299C20.8684 4.84827 20.9358 5.06218 21.0655 5.23796C21.1989 5.4208 21.3652 5.57736 21.5559 5.6992C21.7907 5.84009 22.0349 5.96452 22.2867 6.07184C22.5614 6.18955 22.8361 6.3172 23.1205 6.44472C23.4065 6.57799 23.6848 6.72683 23.9543 6.89088C24.2238 7.05443 24.4682 7.25606 24.6802 7.48935C24.8992 7.72777 25.0736 8.00336 25.1952 8.30336C25.3378 8.65193 25.4095 9.02552 25.4061 9.40211Z" fill="white"/>
<path d="M33.9353 2.89378C33.9438 3.02934 33.9438 3.16534 33.9353 3.3009C33.9251 3.39263 33.9054 3.48294 33.8764 3.57056C33.854 3.62835 33.8187 3.68035 33.7734 3.72263C33.7337 3.75253 33.6858 3.76968 33.6361 3.77173H30.9876V12.2911C30.99 12.3446 30.9725 12.3969 30.9385 12.4382C30.8905 12.4895 30.8295 12.5269 30.762 12.5462C30.6536 12.5803 30.5417 12.6016 30.4284 12.6099C30.0842 12.6426 29.7377 12.6426 29.3936 12.6099C29.2803 12.6016 29.1684 12.5803 29.06 12.5462C28.9925 12.5269 28.9315 12.4895 28.8835 12.4382C28.8495 12.3969 28.832 12.3446 28.8344 12.2911V3.77173H26.1859C26.1344 3.77138 26.0844 3.7541 26.0437 3.72263C26.0018 3.67848 25.9686 3.62689 25.9456 3.57056C25.9166 3.48294 25.8969 3.39263 25.8867 3.3009C25.8782 3.16534 25.8782 3.02934 25.8867 2.89378C25.8783 2.75494 25.8783 2.61567 25.8867 2.47684C25.8969 2.38511 25.9166 2.2948 25.9456 2.20718C25.967 2.15146 26.0005 2.10106 26.0437 2.05989C26.0851 2.03018 26.135 2.01476 26.1859 2.01583H33.6361C33.6853 2.01613 33.7332 2.03147 33.7734 2.05989C33.8198 2.09924 33.8553 2.15007 33.8764 2.20718C33.9054 2.2948 33.9251 2.38511 33.9353 2.47684C33.9437 2.61567 33.9437 2.75494 33.9353 2.89378Z" fill="white"/>
<path d="M44.2351 7.18045C44.2471 7.9758 44.1363 8.76803 43.9064 9.52955C43.7111 10.1807 43.3764 10.7817 42.9255 11.2905C42.4885 11.781 41.9402 12.1594 41.3266 12.394C40.6237 12.661 39.8762 12.7908 39.1244 12.7765C38.3936 12.7908 37.6656 12.6815 36.9713 12.4529C36.388 12.2574 35.8622 11.9204 35.441 11.472C35.0095 10.9888 34.6941 10.4133 34.5189 9.78963C34.3031 9.0022 34.2007 8.18791 34.2149 7.37156C34.2034 6.58911 34.3142 5.80969 34.5435 5.06149C34.7412 4.41574 35.0757 3.82017 35.5244 3.31541C35.9658 2.83221 36.5107 2.45498 37.1184 2.21186C37.8246 1.94443 38.5754 1.81468 39.3304 1.8294C40.051 1.8178 40.7687 1.92547 41.4541 2.14816C42.0388 2.34368 42.5662 2.68064 42.9893 3.12909C43.4219 3.60929 43.7404 4.18109 43.9211 4.80165C44.1424 5.57477 44.2482 6.3764 44.2351 7.18045ZM41.9789 7.29324C41.9833 6.785 41.9389 6.27734 41.8465 5.77755C41.7756 5.36219 41.6258 4.96444 41.4051 4.60551C41.1977 4.28482 40.9081 4.02553 40.5664 3.85496C40.1566 3.66539 39.708 3.57465 39.2568 3.59009C38.7969 3.57284 38.3404 3.6759 37.9326 3.88921C37.5866 4.08096 37.2921 4.35362 37.0743 4.68382C36.8496 5.04098 36.6932 5.43675 36.6132 5.85107C36.5229 6.31478 36.4785 6.78633 36.4808 7.25876C36.4769 7.78141 36.5196 8.30345 36.6083 8.81852C36.6807 9.23502 36.8304 9.63423 37.0497 9.99559C37.2525 10.3184 37.5412 10.5784 37.8835 10.7461C38.2982 10.9304 38.7494 11.0174 39.2029 11.0009C39.6605 11.0166 40.1146 10.9155 40.5222 10.7069C40.8721 10.5183 41.1676 10.2428 41.3805 9.90722C41.6176 9.54793 41.7841 9.14694 41.871 8.72536C41.9533 8.2526 41.9895 7.773 41.9789 7.29324Z" fill="white"/>
<path d="M6.49865 23.8171C6.47895 23.8928 6.44571 23.9641 6.40055 24.0279C6.34793 24.0853 6.27979 24.1263 6.20438 24.1457C6.08312 24.1804 5.95773 24.1984 5.83162 24.1996C5.67467 24.1996 5.46868 24.1996 5.21854 24.1996H4.69865H4.33571C4.25109 24.1931 4.1673 24.1784 4.08557 24.1555C4.03047 24.1354 3.97781 24.1089 3.92862 24.077C3.88738 24.0498 3.85365 24.0128 3.83052 23.9692C3.80384 23.9175 3.78247 23.8633 3.76676 23.8073L0.853395 15.126C0.803962 14.9855 0.766241 14.8412 0.740598 14.6944C0.732067 14.6518 0.734828 14.6076 0.74859 14.5663C0.762353 14.525 0.786628 14.4881 0.819059 14.459C0.914246 14.3937 1.02734 14.3593 1.14278 14.3608C1.28992 14.3608 1.50572 14.3608 1.77547 14.3608C2.04523 14.3608 2.18745 14.3608 2.31988 14.3608C2.42333 14.3639 2.52578 14.3822 2.62396 14.415C2.68565 14.4323 2.73834 14.4727 2.77113 14.5278C2.80364 14.587 2.82992 14.6494 2.84959 14.7141L5.23324 22.2672L7.56786 14.7534C7.5838 14.6812 7.61026 14.6119 7.64635 14.5474C7.68008 14.488 7.73404 14.4426 7.79839 14.4198C7.89967 14.3852 8.00535 14.3653 8.11226 14.3608C8.24959 14.3608 8.43598 14.3608 8.67631 14.3608C8.85602 14.3514 9.0361 14.3514 9.21581 14.3608C9.3152 14.3635 9.40988 14.4038 9.48068 14.4736C9.50616 14.5085 9.52338 14.5487 9.53103 14.5912C9.53868 14.6337 9.53654 14.6773 9.5248 14.7189C9.49682 14.8624 9.45746 15.0036 9.4071 15.1408L6.49865 23.8171Z" fill="white"/>
<path d="M16.5924 23.3853C16.5987 23.5078 16.5987 23.6306 16.5924 23.7531C16.5815 23.8351 16.5618 23.9158 16.5336 23.9936C16.515 24.0453 16.4828 24.0911 16.4404 24.126C16.4042 24.1507 16.3616 24.1644 16.3178 24.1653H11.3739C11.2199 24.1701 11.0696 24.1175 10.9521 24.018C10.889 23.954 10.8409 23.877 10.8112 23.7922C10.7816 23.7074 10.771 23.6169 10.7804 23.5276V14.9935C10.771 14.9042 10.7816 14.8139 10.8112 14.7291C10.8409 14.6443 10.889 14.5671 10.9521 14.5031C11.0696 14.4035 11.2199 14.3512 11.3739 14.356H16.2785C16.3226 14.3553 16.3657 14.3691 16.4011 14.3953C16.4428 14.431 16.4748 14.4765 16.4943 14.5277C16.5207 14.6057 16.5387 14.6862 16.5483 14.7679C16.557 14.892 16.557 15.0167 16.5483 15.1408C16.5569 15.2616 16.5569 15.3828 16.5483 15.5036C16.5394 15.5839 16.5213 15.6629 16.4943 15.739C16.4748 15.7903 16.4428 15.8358 16.4011 15.8715C16.3671 15.9009 16.3234 15.9165 16.2785 15.9155H12.7864V18.3042H15.7292C15.7741 18.3036 15.8176 18.3195 15.8518 18.3485C15.8954 18.3814 15.9293 18.4253 15.9499 18.4759C15.9792 18.5513 15.9974 18.6306 16.0039 18.7113C16.03 18.9509 16.03 19.1928 16.0039 19.4324C15.9974 19.5115 15.9792 19.589 15.9499 19.6628C15.9279 19.7125 15.8943 19.7564 15.8518 19.7904C15.8155 19.8142 15.7726 19.8261 15.7292 19.8246H12.7864V22.5859H16.2785C16.3232 22.5862 16.3665 22.602 16.4011 22.6302C16.4436 22.6651 16.4758 22.7109 16.4943 22.7626C16.5232 22.8385 16.543 22.9175 16.5532 22.9981C16.5826 23.1354 16.5924 23.2382 16.5924 23.3853Z" fill="white"/>
<path d="M25.5974 23.9103C25.5977 23.9582 25.5858 24.0053 25.563 24.0475C25.5285 24.0957 25.4782 24.1305 25.4208 24.1457C25.3119 24.1747 25.2 24.1912 25.0873 24.1948C24.9401 24.1948 24.7439 24.1948 24.4889 24.1948C24.2339 24.1948 24.1112 24.1948 23.9984 24.1948C23.8969 24.1889 23.7965 24.1706 23.6993 24.1406C23.638 24.1197 23.5837 24.0825 23.5423 24.0329C23.511 23.9857 23.4863 23.9346 23.4687 23.8808L22.5908 21.6933C22.4829 21.4432 22.3799 21.203 22.2818 21.0362C22.1932 20.8573 22.0792 20.6921 21.9434 20.5457C21.824 20.418 21.6785 20.3176 21.5167 20.2514C21.3381 20.1838 21.1484 20.1504 20.9575 20.1532H20.3347V23.8856C20.3358 23.9344 20.3182 23.9818 20.2856 24.018C20.2444 24.0682 20.1873 24.1029 20.1238 24.1162C20.0255 24.15 19.9233 24.1714 19.8197 24.1799C19.6563 24.1892 19.4925 24.1892 19.3292 24.1799C19.1658 24.189 19.0021 24.189 18.8387 24.1799C18.7335 24.1713 18.6298 24.15 18.5298 24.1162C18.4681 24.1016 18.413 24.067 18.3728 24.018C18.3438 23.98 18.3283 23.9334 18.3287 23.8856V14.9935C18.3186 14.9045 18.3284 14.8144 18.3572 14.7296C18.386 14.6448 18.4332 14.5675 18.4954 14.5031C18.613 14.4035 18.7633 14.3512 18.9172 14.356H21.4529C21.708 14.356 21.9189 14.356 22.0856 14.356L22.5418 14.3953C22.9073 14.4439 23.265 14.5393 23.6061 14.6796C23.9039 14.8058 24.1751 14.9873 24.4055 15.2143C24.621 15.4377 24.788 15.7031 24.896 15.9941C25.0154 16.3258 25.0735 16.6764 25.0676 17.0289C25.0716 17.3309 25.0303 17.632 24.945 17.9217C24.8665 18.1836 24.742 18.4294 24.5772 18.6476C24.4096 18.8627 24.2074 19.0484 23.9788 19.197C23.7289 19.3615 23.4562 19.4888 23.1695 19.5746C23.3159 19.6461 23.454 19.7331 23.5815 19.8345C23.7169 19.9421 23.8387 20.0656 23.9445 20.2023C24.0647 20.3573 24.1729 20.5213 24.2682 20.6928C24.3663 20.8792 24.4644 21.0852 24.5625 21.3157L25.3865 23.2481C25.46 23.4394 25.514 23.5767 25.5385 23.665C25.5702 23.7434 25.5901 23.826 25.5974 23.9103ZM23.0469 17.2497C23.0568 16.9623 22.9798 16.6785 22.8262 16.4355C22.6561 16.1871 22.3987 16.012 22.1052 15.945C21.9922 15.9182 21.8775 15.8987 21.7619 15.8863C21.5843 15.8683 21.4058 15.8599 21.2273 15.8617H20.3347V18.6378H21.3499C21.6007 18.6425 21.8506 18.6078 22.0905 18.5348C22.2843 18.4762 22.4644 18.3794 22.6202 18.2503C22.7609 18.1293 22.8702 17.9761 22.939 17.8039C23.0094 17.6275 23.046 17.4396 23.0469 17.2497Z" fill="white"/>
<path d="M35.2056 19.1282C35.2236 19.9113 35.104 20.6914 34.8525 21.4332C34.6454 22.0265 34.2989 22.5615 33.8421 22.993C33.3839 23.407 32.8369 23.7107 32.2432 23.8807C31.5123 24.0847 30.7555 24.1806 29.9969 24.1652H27.6623C27.5083 24.17 27.358 24.1175 27.2404 24.018C27.1774 23.954 27.1293 23.8769 27.0996 23.7921C27.0699 23.7073 27.0594 23.6168 27.0688 23.5275V14.9935C27.0594 14.9041 27.0699 14.8139 27.0996 14.7291C27.1293 14.6443 27.1774 14.567 27.2404 14.503C27.358 14.4035 27.5083 14.3512 27.6623 14.356H30.1734C30.9255 14.3395 31.6753 14.4422 32.3952 14.6601C32.9681 14.847 33.4924 15.1585 33.9304 15.5723C34.3558 15.9827 34.6798 16.4864 34.877 17.0437C35.1127 17.7127 35.2241 18.4191 35.2056 19.1282ZM33.1457 19.1969C33.1496 18.76 33.0952 18.3245 32.9838 17.902C32.8854 17.5233 32.7064 17.1703 32.459 16.8672C32.2135 16.5652 31.8966 16.329 31.5369 16.1803C31.0684 15.999 30.5676 15.9155 30.0655 15.9351H29.0307V22.5909H30.0704C30.5387 22.6034 31.0055 22.5319 31.4486 22.3799C31.8072 22.2477 32.1274 22.0287 32.3805 21.7424C32.6476 21.4359 32.8436 21.074 32.9544 20.6829C33.0864 20.2037 33.1508 19.7085 33.1457 19.2115V19.1969Z" fill="white"/>
<path d="M42.641 23.3853C42.6498 23.5078 42.6498 23.6307 42.641 23.7532C42.6339 23.8353 42.6157 23.9163 42.5871 23.9936C42.5668 24.0457 42.5329 24.0914 42.489 24.1261C42.4531 24.1513 42.4103 24.165 42.3664 24.1653H37.4617C37.3092 24.1703 37.1604 24.1177 37.0448 24.018C36.9809 23.9547 36.9322 23.8777 36.9025 23.7927C36.8727 23.7077 36.8627 23.617 36.8732 23.5276V14.9935C36.8627 14.9041 36.8727 14.8137 36.9025 14.7287C36.9322 14.6437 36.9809 14.5665 37.0448 14.5031C37.1604 14.4035 37.3092 14.3511 37.4617 14.356H42.3664C42.4088 14.3564 42.45 14.3702 42.4841 14.3953C42.5287 14.4282 42.5614 14.4747 42.5773 14.5277C42.6055 14.6055 42.6252 14.686 42.6361 14.768C42.6361 14.866 42.6361 14.9937 42.6361 15.1408C42.6361 15.288 42.6361 15.4056 42.6361 15.5036C42.6259 15.5842 42.6062 15.6632 42.5773 15.7391C42.5614 15.7922 42.5287 15.8386 42.4841 15.8715C42.4516 15.9002 42.4097 15.9158 42.3664 15.9156H38.8399V18.3042H41.7827C41.8289 18.3045 41.8737 18.3202 41.9102 18.3485C41.9522 18.3819 41.9844 18.4258 42.0034 18.4759C42.0323 18.5517 42.0521 18.6308 42.0623 18.7113C42.0623 18.8094 42.0623 18.9271 42.0623 19.0693C42.0683 19.1902 42.0683 19.3115 42.0623 19.4324C42.0521 19.5113 42.0323 19.5886 42.0034 19.6628C41.983 19.7121 41.9511 19.756 41.9102 19.7904C41.8719 19.8138 41.8276 19.8256 41.7827 19.8247H38.8399V22.5859H42.3664C42.4112 22.5854 42.4548 22.6012 42.489 22.6302C42.5329 22.6648 42.5668 22.7106 42.5871 22.7627C42.6164 22.8381 42.6346 22.9174 42.641 22.9981C42.6505 23.1271 42.6505 23.2563 42.641 23.3853Z" fill="white"/>
<path d="M64.3048 5.26751C63.1314 5.93216 62.0567 6.75759 61.1119 7.71983C61.0337 7.34228 60.9305 6.97033 60.8029 6.60647H60.6803C60.6803 7.13127 60.6803 7.65137 60.6803 8.17126C59.9606 8.94435 59.3045 9.77409 58.7184 10.6528C58.3996 11.1433 58.0955 11.6093 57.7915 12.0899C57.7915 12.1341 57.6786 12.3007 57.659 12.3498C57.0901 13.6839 56.5359 15.1749 56.0062 16.6512C56.0748 16.2245 56.1484 15.7929 56.2269 15.3613C56.3544 14.6403 56.5555 13.6251 56.6094 12.909C56.9135 9.60326 56.4868 6.39562 56.9969 3.0997L56.8743 3.06042C55.5402 6.08168 55.6236 9.56411 55.2852 12.7619C55.1577 13.9243 54.9909 15.1357 54.8683 16.3226C54.8683 15.8321 54.8683 15.3762 54.8683 14.8955C54.898 12.2525 54.3786 9.63181 53.3429 7.19991C52.362 4.82606 51.2143 2.55535 50.7925 -0.0195923C50.6797 3.4529 52.3963 6.63604 53.1516 9.94177C53.5071 11.57 53.6717 13.234 53.6421 14.9003C53.6421 15.484 53.6421 16.0627 53.6127 16.6366C52.1021 12.7374 50.1059 9.00503 48.9533 4.9636H48.8307C48.8536 6.52318 49.0879 8.07227 49.5271 9.56889C50.508 13.1934 52.3228 16.5482 53.75 20.0011C53.7477 20.0436 53.7477 20.0863 53.75 20.1287C53.75 20.1925 53.7794 20.2561 53.7942 20.3198C53.0241 18.8141 52.3228 17.2693 51.4203 15.8273C50.0715 13.7036 48.2961 11.5946 45.9026 10.6382L45.8339 10.7412C46.7761 11.5376 47.6324 12.4302 48.3892 13.4045C49.1362 14.3757 49.8336 15.3839 50.4786 16.4256C51.8127 18.5199 53.4214 20.4866 54.6525 22.6594L54.9516 23.1891C54.949 23.1614 54.949 23.1335 54.9516 23.1058C55.0882 22.6324 55.2519 22.1674 55.4421 21.7129C55.4715 21.7129 55.4764 21.6835 55.4421 21.6835C55.9105 20.599 56.5154 19.5788 57.2421 18.6475C58.1745 17.5299 59.0456 16.3626 59.8514 15.1506C60.9965 13.1889 61.4716 10.9077 61.2051 8.65191C62.1318 7.43074 63.1695 6.29766 64.3048 5.26751ZM56.9478 18.4416C56.7091 18.8274 56.4639 19.2147 56.2121 19.6038C57.0312 17.3231 57.8405 14.8953 58.7773 12.7373C59.3315 11.7318 59.9053 10.7266 60.5331 9.76527C60.489 10.1184 60.4351 10.4715 60.3615 10.8197C59.7729 13.5761 58.3898 16.0138 56.9527 18.4416H56.9478Z" fill="white"/>
<path d="M17.6666 28.0791H16.9014V31.1395H17.6616C18.5641 31.1395 18.9614 30.4676 18.9614 29.5553C18.9614 28.7853 18.5886 28.0791 17.6666 28.0791Z" fill="white"/>
<path d="M31.6889 27.9907C31.5712 28.4812 31.3407 29.1924 31.071 30.041H32.356C32.0225 29.06 31.8116 28.4174 31.6939 27.9907H31.6889Z" fill="white"/>
<path d="M7.78367 27.9907C7.67086 28.4812 7.43544 29.1924 7.16568 30.041H8.43109C8.09757 29.06 7.88666 28.4174 7.77385 27.9907H7.78367Z" fill="white"/>
<path d="M0 25.6857V33.69H64.3441V25.6857H0ZM5.08612 31.9636H1.84415V27.2649H2.85942V31.1297H5.20383L5.08612 31.9636ZM9.0589 31.9636L8.67142 30.8797H6.9597L6.59185 31.9636H5.61092L7.20984 27.2649H8.48504L10.1477 31.9636H9.0589ZM14.7581 31.9636H13.5662C13.0758 31.0464 11.8545 28.859 11.6044 28.3146C11.6387 28.7265 11.6535 29.6926 11.6535 30.5362V31.9636H10.7265V27.2649H11.9821C12.5706 28.3194 13.6546 30.2077 13.8704 30.7374C13.8164 30.247 13.8164 29.4278 13.8164 28.6577V27.2649H14.7385L14.7581 31.9636ZM17.7009 31.9636H15.8763V27.2649H17.7499C18.0546 27.2459 18.3597 27.2924 18.6449 27.4012C18.9301 27.5099 19.1887 27.6782 19.4034 27.8952C19.618 28.1122 19.7838 28.3726 19.8894 28.6589C19.995 28.9453 20.0382 29.2509 20.0159 29.5553C20.0403 29.8694 19.998 30.1852 19.8919 30.4819C19.7858 30.7785 19.6181 31.0494 19.4 31.2767C19.1819 31.5041 18.9183 31.6828 18.6263 31.8012C18.3343 31.9196 18.0206 31.9749 17.7058 31.9636H17.7009ZM22.4976 32.0323C21.3009 32.0323 20.6731 31.4437 20.5358 30.5853H21.5609C21.6688 31.0758 22.0072 31.2672 22.5418 31.2672C23.0764 31.2672 23.3167 31.0513 23.3167 30.708C23.3167 30.3646 23.0862 30.1586 22.2867 29.9723C21.0066 29.6731 20.6878 29.2072 20.6878 28.5696C20.6878 27.7505 21.3009 27.1962 22.4143 27.1962C23.6649 27.1962 24.1603 27.8681 24.229 28.5548H23.2431C23.1941 28.2654 23.0322 27.9515 22.429 27.9515C22.017 27.9515 21.7668 28.1232 21.7668 28.442C21.7668 28.7608 21.9679 28.8981 22.7233 29.0747C24.0916 29.3984 24.3908 29.9086 24.3908 30.5707C24.3908 31.4389 23.7434 32.0273 22.5025 32.0273L22.4976 32.0323ZM27.162 32.0323C25.6906 32.0323 24.9647 30.9776 24.9647 29.6387C24.9647 28.2997 25.6955 27.1863 27.211 27.1863C28.4617 27.1863 29.0699 27.9221 29.1728 28.7068H28.1576C28.1106 28.4871 27.985 28.2921 27.8044 28.1584C27.6238 28.0247 27.4005 27.9616 27.1767 27.9809C26.338 27.9809 26.0143 28.7363 26.0143 29.5946C26.0143 30.4529 26.2987 31.2231 27.2061 31.2231C27.4282 31.2407 27.6493 31.178 27.8292 31.0466C28.0092 30.9152 28.1361 30.7237 28.187 30.5068H29.2072C29.1199 30.97 28.8616 31.3835 28.4837 31.6652C28.1057 31.9468 27.6357 32.076 27.1669 32.0273L27.162 32.0323ZM32.9543 31.9636L32.5718 30.8797H30.8551L30.502 31.9636H29.5211L31.1151 27.2649H32.3952L34.0579 31.9636H32.9543ZM36.5495 30.2077H35.6519V31.9636H34.6317V27.2649H36.5936C37.5745 27.2649 38.271 27.824 38.271 28.7363C38.2563 29.7368 37.4813 30.2029 36.5544 30.2029L36.5495 30.2077ZM42.3565 31.9636H39.0116V27.2649H42.3468V28.0988H39.9974V29.1041H42.2732V29.938H40.0219V31.1297H42.5037L42.3565 31.9636Z" fill="white"/>
<path d="M36.4464 28.0693H35.6519V29.3934H36.4268C36.9173 29.3934 37.2312 29.2169 37.2312 28.7363C37.2312 28.2556 36.878 28.0693 36.4464 28.0693Z" fill="white"/>
</g>
<defs>
<clipPath id="clip0_71_61">
<rect width="64.3392" height="33.69" fill="white"/>
</clipPath>
</defs>
</svg>
